<?xml version="1.0" encoding="UTF-8"?>
<svg id="Calque_2" data-name="Calque 2" xmlns="http://www.w3.org/2000/svg" viewBox="0 0 386.1 136.07">
  <defs>
    <style>
      .cls-1 {
        fill: #711a6f;
      }
    </style>
  </defs>
  <g id="Calque_1-2" data-name="Calque 1">
    <g>
      <polygon class="cls-1" points="44.91 120.01 39.43 131.47 33.95 120.01 33.29 120.01 30.46 135.81 32.69 135.81 34.48 125.76 39.12 135.21 39.74 135.21 44.38 125.76 46.17 135.81 48.4 135.81 45.57 120.01 44.91 120.01"/>
      <path class="cls-1" d="M67.11,120.01l-6.96,15.8h2.36l1.39-3.27h7.04l1.4,3.27h2.39l-6.96-15.8h-.66ZM64.74,130.57l2.67-6.28,2.69,6.28h-5.36Z"/>
      <polygon class="cls-1" points="94.68 120.21 90.57 126.71 86.48 120.21 83.94 120.21 89.49 128.75 89.49 135.81 91.67 135.81 91.67 128.72 97.22 120.21 94.68 120.21"/>
      <polygon class="cls-1" points="133.67 120.21 129.56 126.71 125.47 120.21 122.93 120.21 128.48 128.75 128.48 135.81 130.67 135.81 130.67 128.72 136.21 120.21 133.67 120.21"/>
      <path class="cls-1" d="M160.96,122.25c-.73-.71-1.58-1.28-2.55-1.69-.97-.41-2.03-.62-3.16-.62s-2.17.21-3.15.62c-.98.41-1.83.98-2.56,1.69-.73.71-1.3,1.56-1.71,2.55s-.62,2.05-.62,3.2.21,2.22.62,3.2.98,1.84,1.71,2.55c.73.71,1.58,1.28,2.56,1.69s2.03.62,3.15.62,2.19-.21,3.16-.62c.97-.41,1.82-.98,2.55-1.69.73-.71,1.3-1.56,1.71-2.55.41-.99.62-2.05.62-3.2s-.21-2.22-.62-3.2c-.41-.99-.98-1.84-1.71-2.55ZM160.59,130.37c-.3.72-.72,1.35-1.25,1.88s-1.15.94-1.84,1.24c-.7.29-1.45.44-2.24.44s-1.54-.15-2.24-.44c-.7-.29-1.31-.71-1.84-1.24s-.95-1.16-1.25-1.88-.45-1.51-.45-2.36.15-1.64.45-2.36.72-1.35,1.25-1.88,1.14-.94,1.84-1.24c.7-.29,1.45-.44,2.24-.44s1.54.15,2.24.44,1.31.71,1.84,1.24.95,1.16,1.25,1.88.45,1.51.45,2.36-.15,1.64-.45,2.36Z"/>
      <path class="cls-1" d="M186.73,130.04c0,.53-.1,1.03-.29,1.51-.19.48-.46.89-.79,1.25-.34.35-.74.64-1.22.85-.47.21-.99.32-1.55.32s-1.1-.11-1.57-.32c-.47-.21-.88-.5-1.21-.85-.34-.35-.6-.77-.78-1.25-.18-.48-.28-.98-.28-1.51v-9.83h-2.19v9.96c0,.81.15,1.58.45,2.3s.72,1.35,1.26,1.88c.54.53,1.17.95,1.91,1.26.74.31,1.54.46,2.41.46s1.67-.15,2.41-.46c.74-.31,1.37-.73,1.91-1.26.54-.53.96-1.16,1.26-1.88s.45-1.49.45-2.3v-9.96h-2.19v9.83Z"/>
      <polygon class="cls-1" points="219.63 135.81 221.81 135.81 221.81 129.14 227.71 129.14 227.71 127.19 221.81 127.19 221.81 122.2 228.66 122.2 228.66 120.21 219.63 120.21 219.63 135.81"/>
      <rect class="cls-1" x="242.07" y="120.21" width="2.19" height="15.6"/>
      <polygon class="cls-1" points="269.59 130.99 259.68 120.01 259.01 120.01 259.01 135.81 261.22 135.81 261.22 125.07 271.12 136.03 271.78 136.03 271.78 120.21 269.59 120.21 269.59 130.99"/>
      <path class="cls-1" d="M297.66,122.48c-.68-.7-1.5-1.25-2.45-1.66-.95-.4-1.99-.61-3.13-.61h-5.54v15.6h5.54c1.13,0,2.18-.2,3.13-.6s1.77-.95,2.45-1.66c.68-.71,1.22-1.54,1.6-2.49s.57-1.98.57-3.08-.19-2.11-.57-3.05c-.38-.94-.92-1.76-1.6-2.46ZM297.12,130.33c-.29.71-.7,1.32-1.2,1.83-.51.52-1.11.92-1.8,1.2s-1.44.43-2.23.43h-3.16v-11.6h3.18c.8,0,1.54.14,2.23.43s1.29.69,1.8,1.2c.51.52.91,1.13,1.19,1.83.29.71.43,1.48.43,2.32s-.15,1.63-.44,2.34Z"/>
      <rect class="cls-1" x="329.73" y="120.21" width="2.19" height="15.6"/>
      <polygon class="cls-1" points="345.03 122.2 349.72 122.2 349.72 135.81 351.91 135.81 351.91 122.2 356.59 122.2 356.59 120.21 345.03 120.21 345.03 122.2"/>
      <path class="cls-1" d="M69.23,80.41c.79-.66.79-.79.93-2.25-2.91-.79-5.03-1.06-7.14-2.38-3.17-2.12-19.97-30.81-21.16-35.44,3.31-3.17,8.33-2.51,11.24-6.35,3.97-5.16,5.55-17.32,1.59-23.54L45.69,1.59c-1.19.4-.93.4-1.59,1.19-.66-.4-1.32-.66-1.98-.93.4-.53.66-.66,1.06-1.06l-1.06-.79c-3.04.93-9.92.66-13.49.53C19.24.26,9.85.53.46.53c-1.59,3.17,1.19,2.51,3.84,3.31,4.5,2.65,3.04,12.56,4.1,18.91,1.19,7.01.13,12.96,1.06,18.65.79,4.89,2.12,11.37,1.32,16.27l.93,15.08c-1.59,5.95-7.14,3.57-10.71,7.14-.27,0-.4.13-.53.26,3.44,1.72,22.08.26,28.7.26.13-.13.27-.26.4-.26v-.79c-1.72-.93-4.63-2.25-6.35-1.98-2.25-1.59-2.78-3.83-3.04-6.88h-2.25l.93,4.89c-.26.4-.66.66-.93.93h-1.06l.27-1.19c-.53-.4-1.45-.26-3.04-.26,0,.53-.13.93-.26,1.45-.13,0-.4.13-.53.26-1.32-3.7,1.59-9.79,2.25-12.7h1.59c.26-1.06.4-2.12.53-3.31.53-.13.93-.26,1.45-.53-.26,1.06-.4,1.98-.53,3.04l.53.27c.27-.79-.4-17.72-1.19-20.5,1.72-1.72,6.35-.93,8.6-1.45,3.97,2.78,7.93,7.01,9.26,12.43.79-.26.26.26.79-.66.26.13.4.27.66.27.13,1.45.13,1.06-.66,1.98l1.45,1.32c.4.13,0,.13.26-.26.53.66.53.4.79,1.45-.26-.27-.53-.4-.79-.53l1.32,2.65c.66.13.4.26.53-.26,1.45.66,9.65,15.34,13.23,18.12v2.25c5.29,0,10.58.13,15.87.26ZM19.11,77.36c-.66.27-.4.66-.93,0h.93ZM12.23,47.74c.53.53.27.13.53,1.06h-.53v-1.06ZM13.82,63.88c-.13.13-.4.27-.53.27l-.79-13.89,1.85-.93c.93.79-.13,12.56-.53,14.55ZM50.32,22.22c.53.79.53,1.98-.27,3.04v.53c-.13-.13-.4-.26-.53-.26l.79-3.31ZM18.85,37.82c-.53-.93-1.98-27.38-.93-29.89,1.45-3.31,5.95-3.57,10.45-3.83.79-1.19.93-1.98,1.72-2.78,1.06.13,2.12.26,3.31.26-.13.53-.27,1.19-.27,1.72-.79-.13-1.59-.27-2.25-.27-.13.13-.4.27-.53.53,3.84,2.38,9.65,4.89,12.03,8.73,11.11,17.72-6.35,26.05-23.54,25.52ZM57.46,71.55c0,.4-.13.66-.26.93-.13-.26-.4-.53-.53-.93h.79ZM55.08,73.53c.92.66,1.32,1.45,1.85,2.78.66,0,1.32.13,1.98.26,0-.26.13-.4.26-.53l-.93-1.46v-.79l3.31,2.78v.27c-2.51.66-3.31,1.19-5.42,1.85l-2.25-4.1c.27.13.53.27.79.27.53-.66.4-.4.4-1.32ZM54.42,73c-.53-.53-.53-.4-.79-1.46.66.66.53.4.79,1.46ZM45.96,52.64c1.19.66,1.45,1.19,1.72,2.78-1.06-.79-1.45-1.32-1.72-2.78ZM53.1,76.84l-.53-1.06.79.79v.27h-.27Z"/>
      <polygon class="cls-1" points="16.07 65.33 16.07 66.92 17.13 65.86 16.07 65.33"/>
      <path class="cls-1" d="M16.33,69.43v.79h.27c.13-.79.4-.26-.27-.79Z"/>
      <polygon class="cls-1" points="16.6 73.27 17.13 72.21 16.6 72.21 16.33 73.27 16.6 73.27"/>
      <path class="cls-1" d="M73.67,37.91c-.57,0-1.15.57-1.82.38l-.19,3.44.96,1.34c3.73-1.15,5.25-.57,8.12,1.81,2.01,0,4.78,9.94,4.78,11.75,0,4.68,1.53,9.36,1.53,14.04,0,4.3-1.72,8.41-1.72,12.71,0,6.88-2.48,9.55-10.03,9.55-1.34,0-2.58-.1-3.82-.29l-.76,1.62,1.34,3.92c2.39-.19,5.16-.76,7.55-.76,9.46,0,19.68-.19,29.14.19.48-1.24.38-2.68.76-3.92l-.76-.86c-3.44,0-7.55.38-10.32-2.2-5.35-4.97-4.49-23.69-4.49-31.05,0-6.21,5.25-17.67,12.52-17.67,1.15,0,2.2.29,3.06.96,1.05-.86,1.24-2.1,1.24-3.34l-1.43-1.24-35.63-.38ZM106.34,96s.19-.29.19-.38l.86.19-.29.38h-.76v-.19ZM102.8,94.66c.48.1.96.19,1.43.19h1.15l.19,1.15-.38.19-2.2-.38c-.1-.1-.19-.57-.19-.76v-.38ZM100.42,95.04l.76.38v.57h-1.15l-.19-.38.57-.57ZM98.98,93.23c.1.1.38.38.38.48,0,.19-.19.38-.19.76-.67-.48-.38-.1-.57-1.05l.38-.19ZM93.63,42.11c.1.1.1.29.1.38s-.19.29-.29.38l.19-.76ZM92.49,41.54h.57l-.19.57-.57-.19.19-.38ZM91.53,40.49h.57l-.86.67.29-.67ZM86.95,44.69c1.34.38,3.06,1.91,3.73,3.15l-2.01.57c-.86-.57-1.43-1.53-1.72-2.58-.1-.1-.29-.29-.29-.38,0-.19.19-.57.29-.76ZM91.72,72.4v-.19l.38-.57h.38c-.29.86,0,.48-.76.76ZM92.68,74.41c.38.48.38.57.38,1.24l-.38.19-.38-.19.38-1.24ZM92.39,68.77c0,.1-.1.29-.1.48l-.57.19.38-1.15c.09.1.29.29.29.48ZM92.1,54.34l.19-.57c0,.1.1.29.1.29l-.29.29ZM91.05,65.14c.19-.76.29-.76.67-1.43h.38c-.29.76-.38.96-1.05,1.43ZM88.95,88.74l.19-.86.38.19-.57.67ZM89.52,90.46v.67l-.57-.29.19-.38h.38ZM89.33,83.39l-.67.38.29-1.24c.1.19.38.29.38.67v.19ZM88.95,79.37l-.48.19.67-1.82h.38l-.57,1.62ZM89.33,62.94h-.19l.38-1.05.19.86c-.1,0-.38.19-.38.19ZM89.52,64.47v.38l-.19.19.19-.57ZM90.48,62.56c.19.1.29.29.29.48,0,.29-.1.57-.1.86l-.96.38.76-1.72ZM90.29,60.55l.76-2.01h.67l-.48,1.24-.96.76ZM90.1,59.12l-.57.48-.38-.48.96-1.72.57.19-.57,1.53ZM89.72,52.05l-.38-1.43q.38.29.96.38c-.19.67-.1.57-.57,1.05ZM89.52,53.39l-.19.57-1.24.48v-.67l1.05-1.34.38.96ZM88.28,56.16h-.38v-.57c.38.38.19.1.38.57ZM89.14,56.35c.1.19.1.38.1.48,0,.38-.48,1.24-.57,1.72l-.38.19.86-2.39ZM90.1,79.76h.57l-.57,1.62h-.57l.57-1.62ZM89.33,75.17l-.67.48h-.19c.67-1.91,1.43-3.06,2.58-4.59v.1c.09.96-1.34,2.96-1.72,4.01ZM90.86,68.1l.38-.86c.1.1.1.29.1.38s-.29.38-.48.48ZM91.72,60.74l.19-.57s.1.19.1.29c0,0-.19.1-.29.29ZM91.05,56.35l-.38.19v-.57l.57-1.15.67.19-.86,1.34ZM90.86,49.66h-.76l1.15-1.43h.48l-.86,1.43ZM87.14,53.01l-.19-.38.19-.19h.57l-.57.57ZM87.71,49.47l-.76.57c-.19-.29-.38-.67-.38-.96s.09-.57.19-.86c.48.1.57.19.96.38v.86ZM88.28,84.34c.09.1.09.29.09.38,0,.29-.29.48-.48.57l.38-.96ZM88.28,92.27v-.76h.38l-.38.76ZM88.09,87.49l.86-1.81c.1.1.19.19.19.38s-.38.76-.48,1.05l-.57.38ZM89.52,93.7l-.57.38.38-1.43h.38l-.19,1.05ZM89.91,84.15h-.19c.38-1.72,1.43-2.77,2.39-4.2.38.38.19.1.38.67-.67.96-1.24,1.53-1.62,2.77l-.96.76ZM92.87,85.3l-.76.67.76-1.62c.1.1.19.19.19.29l-.19.67ZM93.44,82.72c0,.1-.57.19-.57.19h-.19v-.19l.76-1.15v1.15ZM93.44,79.56l-1.34-.96.76-1.43.57,1.05v1.34ZM94.49,94.47l-.67.19h-.19l.48-.96.57.38-.19.38ZM97.65,92.27h.57l-.19.76h-.57l-.19-.38.38-.38ZM96.02,94.85l-.57.19.57-1.62.86.29-.86,1.15ZM96.4,91.32v.57c-.67-.29-.38,0-.76-.57h.76ZM94.88,93.04l.19-.96.57.38c-.38.57-.1.38-.76.57ZM94.68,89.88h.38l-.38.76h-.19l.19-.76ZM94.3,91.12l-.48.76h-.19l.19-.76h.48ZM93.63,45.46h-.76v-1.15l-1.15.38v.96l-2.01-.96.57-1.62-2.01,1.43c-.38-.48-.38-.38-.57-1.05h.57c-.29-.67-.38-.57-.96-.96.57-.76,1.53-.96,2.2-1.62.48.67,1.05.76.96,1.72v.29l1.24-.38c0,.1.19.57.19.57v.19l-1.05,1.24,1.43-1.24c.96.48.67.86,2.01,1.05l-.67,1.15ZM94.88,43.07c.67.38.48.19.57.86h-.76l.19-.86ZM95.07,46.51l.57-.86h.38c-.38.67-.19.57-.96.86Z"/>
      <path class="cls-1" d="M164.19,9.68c-5.25-.19-10.41-.48-15.67-.48-15.67,0-31.33.38-47.1,0l-1.15,1.43-1.53,9.46v.76h2.2c3.92-9.84,20.54-6.4,29.04-8.5,0,8.79.38,17.58.38,26.37,0,12.52-.67,24.94-1.91,37.35-2.48,2.1-6.4,1.24-8.41,2.96v1.72c1.91,0,3.54,1.24,5.45,1.24l1.53-.96,14.62.29.48-.57-.48-1.72c-9.84-1.05-6.97-14.62-6.97-22.26,0-13.18,1.62-26.46,1.62-39.74,0-.96-.1-1.91-.38-2.87,1.91-1.34,5.54-1.24,7.64-1.24,9.27,0,14.33-.38,19.87,7.36l.76-.19c.48-.86.86-1.91.86-2.96,0-2.48-.67-4.97-.86-7.45ZM102.47,11.11l-.29-.67.76.48-.48.19ZM121.29,79.04l.48.48c-.38-.29-.19,0-.48-.48ZM129.51,74.55l.19-.96c.1.19.1.38.1.48s-.19.29-.29.48ZM132.47,68.91l.19-1.72.29,1.72h-.48ZM158.46,12.16c.67.29.29,0,.76.48l-.76-.48ZM162.66,11.69c-.86-.38-.48,0-.96-.76l.96.48v.29Z"/>
      <path class="cls-1" d="M233.93,29.86c-.67-1.53-20.44-1.34-24.36-1.24-.1.57-.29,1.15-.48,1.72,3.92,2.39,5.35-.57,9.17,3.73-.57,2.29.38,7.45.29,10.13-.48,8.69.76,21.5-2.01,32.77-1.05,4.3-.1,10.89-2.96,14.62-1.82,2.29-6.4,3.92-9.65,4.68-3.15.67-6.11-.48-7.93-1.05-12.13-3.34-10.89-15.29-10.89-27.71-.1-5.45-.48-11.46.19-15.09,2.39-13.28-3.34-14.9,7.17-22.36v-.76c-4.78-2.87-13.47-.38-19.78-1.43l-7.93.48v1.24c.76,1.43,2.58,2.01,4.2,2.48,3.06,4.11,2.01,11.85.96,18.34,0,6.11.09,12.23,0,18.34-.1,5.73-1.43,12.52.29,18.06.96,3.15,6.02,7.83,8.69,9.46,6.21,3.92,12.8,2.67,21.5,3.73,4.97.57,12.32-3.06,15.38-5.73,9.17-8.02,4.68-26.65,6.69-39.65,1.24-7.83-1.24-18.34,4.49-22.07l6.69-1.24c.19-.1.29-.19.48-.19-.1-.48-.19-.86-.19-1.24ZM211.86,30.53l-.76.29c-.48-.38-.38-.19-.76-.76l1.53.29v.19ZM187.03,32.06l-.19.48-.29-.48h.48ZM165.53,29.57h-.29l.29-.96h.48l-.48.96ZM167.25,30.34c-.19-.38-.38-.67-.48-1.05,1.05,0,2.1-.1,3.15-.19v1.43c-.86,0-1.82-.1-2.68-.19ZM168.97,31.29l.76.29.76.48-1.53-.76ZM171.64,28.62l1.81.19c-.86.38-1.24.29-1.81-.19Z"/>
      <path class="cls-1" d="M298.66,88.61l-.19-1.62c-1.62-1.24-4.58-.1-5.92-2.01l.57.29c-4.01-4.59-26.08-48.91-26.18-54.55l-2.01.38c-2.01,2.39-3.63,6.5-4.11,7.74-.76,4.2-2.1,5.25-3.92,9.17-1.72,5.35-1.24,4.01-2.77,6.97-.38,2.48-2.01,2.87-3.25,7.26.19-.76-1.62,3.25-2.01,4.01l-2.39,5.06c-2.48,5.54-5.35,15.48-12.61,15.86l-.19,1.81,15.67-.19.19-1.82-4.78-.96c-.67-.38-.67-1.24-.67-1.91,0-3.25,3.73-7.17,4.39-10.6,8.98-1.82,18.25.29,27.23-1.15.67,3.82,2.87,7.17,4.68,10.51l-.38-.19,1.62,3.53c-.96.38-2.01.57-2.96.57v2.2c4.87-1.53,10.8.1,15.86.1,1.15,0,3.25-.67,4.11-.48ZM252.61,70.26c-.86.38-.1-.1-2.48.29,3.15-7.45,7.93-14.52,9.94-22.45.38-1.81,2.01-3.44,2.58-5.54,1.15.76,2.29,8.12,3.15,9.94,2.67,6.31,5.73,10.32,7.74,17.1l-20.92.67Z"/>
      <path class="cls-1" d="M362.27,79.69c-4.03,0-5.41,6.05-8.38,7.96-2.02,1.27-9.23,1.27-11.57,1.27-19.85,0-13.05-.74-14.65-15.6-.43-3.82-.53-7.64-.53-11.46,0-7.85-1.27-22.61,7.75-25.37l.53-2.55v-.21c-3.82-1.49-18.36-1.17-23.14-1.17-2.44,0-5.31.64-7.75.85l-1.06,1.7c1.49,1.27,3.82,1.49,5.73,1.91,1.27,2.76,1.17,10.4,1.17,13.58,0,10.61-2.23,21.33-2.23,31.73,0,11.46,1.59,6.47-5.52,13.58l.85,2.76c3.29-.74,6.69-1.59,10.08-1.59,2.97,0,5.73,1.27,8.6,1.27,3.71,0,7.43-1.06,11.25-1.06l19.42-.32c.42,0,1.17,0,1.59.32,4.88-.85,9.23-11.04,9.23-15.5l-.21-1.8-1.17-.32Z"/>
      <polygon class="cls-1" points="385.72 49.42 385.72 50.86 385.91 50.86 386.1 49.42 385.72 49.42"/>
      <polygon class="cls-1" points="385.14 54.11 385.33 54.11 385.91 51.05 385.53 51.05 385.14 54.11"/>
      <polygon class="cls-1" points="385.72 48.18 385.72 48.76 385.91 48.76 385.72 48.18"/>
      <path class="cls-1" d="M384.28,55.83l-.19.38.38.19c0-.1-.09-.38,0-.38-.09,0-.09-.19-.19-.19Z"/>
      <polygon class="cls-1" points="385.53 46.75 385.33 47.13 385.53 47.9 385.53 46.75"/>
      <path class="cls-1" d="M378.26,32.32c0,1.15.86,1.53,1.81,1.53l-1.81-2.01v.48Z"/>
      <path class="cls-1" d="M384.28,44.84c-2.58-6.5-9.27-15.57-14.24-15.09v-.38c-2.67-.86-11.46-9.17-11.46-11.85,0-4.4,5.83-7.17,9.55-7.17,3.06,0,5.64,1.82,6.4,4.78h.67c.67,1.72,1.24,3.82,2.87,4.97h1.05c.96,0,1.34-3.25,1.34-3.92,0-2.77-.76-5.35-.48-8.12l-1.05-.19-.86,1.43-.48.19c-3.15,0-5.83-2.29-9.17-2.29-8.12,0-16.05,3.25-16.05,12.61,0,6.02,5.64,10.7,9.65,14.52,3.25,3.15,7.17-.86,11.94,8.41l-.86.38,1.24.57c.29,1.53.67,3.06.67,4.59,0,6.11-2.58,12.8-9.65,12.8s-12.99-6.4-15-12.9l-.38-.19c-1.24,0-2.29.48-3.06,1.43.48,5.45,2.67,10.7,2.67,16.24l1.24-.38.57.67,2.1-1.72,8.88,2.48c2.39-.86,5.25-.1,7.83-.57,8.98-1.82,15.09-7.36,15.09-16.91,0-1.15-.38-2.67-1.05-4.39ZM355.81,18.18l.96,2.48c-.67-.67-.86-1.53-.96-2.48ZM357.25,17.99l-.48.38-.19-.19.19-.38h.48v.19ZM360.78,31.18c-.86-.19-1.05-.48-1.53-1.24l1.53,1.05v.19ZM348.74,49.42c.38.38.48.67.57,1.15l-.57-1.15ZM351.42,60.51l-.38.19v-.96c.19.19.38.29.38.57v.19ZM355.34,58.69v.19h-.19l-.57-1.05.76.86ZM356.01,60.32l-.86-.76.86.19v.57ZM361.55,66.14l-.76-.86,1.43.19c0,.1.19.29.19.38s-.67.19-.86.29ZM365.46,62.99l-.38-.57,1.43.38-1.05.19ZM369.67,65.47h-1.24v-.19l1.82-.38c0,.1.1.19.1.29l-.67.29ZM370.81,64.04l1.05-.57c.1,0,.1.1.1.19,0,.29-.86.38-1.15.38ZM369.38,63.66c.38-1.05,1.34-1.24,2.1-1.91h.57c-.67,1.24-1.15,1.72-2.67,1.91ZM370.24,61.18l1.43-1.05h.38c-.48.67-1.05.86-1.82,1.05ZM373.39,57.74l-.29-.29h.67l-.38.29ZM375.59,61.37l.67-.86h.19c-.29.48-.48.57-.86.86ZM377.5,56.11l-.29.29.29-2.1c.1.48,0,1.24,0,1.82ZM381.42,49.42l.19.76h-.19v-.76ZM381.51,56.11c-.1.1-.29.19-.29.29l.19-1.82c.1.29.1.57.1.86v.67ZM381.61,58.88l.38-1.62c.19.1.29.29.29.48,0,.38-.38.86-.67,1.15Z"/>
      <path class="cls-1" d="M374.35,29.55l1.91.86c-.38-1.15-1.05-.76-1.91-.86Z"/>
      <path class="cls-1" d="M383.23,58.31c.29-.19.86-.38.86-.67,0-.19-.1-.29-.19-.38l-.67,1.05Z"/>
      <polygon class="cls-1" points="384.09 57.26 384.28 57.26 384.09 56.59 384.09 57.26"/>
      <polygon class="cls-1" points="373.77 29.55 373.39 28.69 372.05 28.98 373.77 29.55"/>
      <path class="cls-1" d="M382.66,59.36v-.48l-.48,1.05c.19-.1.48-.29.48-.57Z"/>
    </g>
  </g>
</svg>